<svg width="28" height="25" viewBox="0 0 28 25" fill="none" xmlns="http://www.w3.org/2000/svg">
<g clip-path="url(#clip0_121:75)">
<path d="M13.6291 7.23926L4.66666 14.6538V22.6563C4.66666 22.8635 4.74861 23.0622 4.89447 23.2087C5.04033 23.3552 5.23816 23.4375 5.44444 23.4375L10.8918 23.4233C11.0974 23.4223 11.2942 23.3395 11.4393 23.1931C11.5843 23.0467 11.6657 22.8486 11.6657 22.6421V17.9688C11.6657 17.7616 11.7476 17.5628 11.8935 17.4163C12.0394 17.2698 12.2372 17.1875 12.4435 17.1875H15.5546C15.7609 17.1875 15.9587 17.2698 16.1045 17.4163C16.2504 17.5628 16.3324 17.7616 16.3324 17.9688V22.6387C16.332 22.7415 16.3519 22.8433 16.3909 22.9384C16.4298 23.0335 16.487 23.1199 16.5593 23.1927C16.6316 23.2655 16.7174 23.3233 16.8119 23.3627C16.9064 23.4021 17.0078 23.4224 17.1101 23.4224L22.5555 23.4375C22.7618 23.4375 22.9597 23.3552 23.1055 23.2087C23.2514 23.0622 23.3333 22.8635 23.3333 22.6563V14.6484L14.3728 7.23926C14.2675 7.15397 14.1363 7.10746 14.001 7.10746C13.8657 7.10746 13.7344 7.15397 13.6291 7.23926V7.23926ZM27.7861 12.2788L23.7222 8.91406V2.15088C23.7222 1.99548 23.6608 1.84644 23.5514 1.73656C23.442 1.62667 23.2936 1.56494 23.1389 1.56494H20.4167C20.2619 1.56494 20.1136 1.62667 20.0042 1.73656C19.8948 1.84644 19.8333 1.99548 19.8333 2.15088V5.69629L15.4812 2.09961C15.0635 1.75438 14.5394 1.56563 13.9985 1.56563C13.4576 1.56563 12.9336 1.75438 12.5159 2.09961L0.210968 12.2788C0.1519 12.3279 0.10303 12.3881 0.067151 12.4561C0.0312721 12.5241 0.00908739 12.5986 0.00186446 12.6752C-0.00535847 12.7519 0.00252193 12.8292 0.0250554 12.9027C0.0475888 12.9763 0.0843337 13.0447 0.133191 13.104L1.37277 14.6177C1.4215 14.6772 1.48143 14.7265 1.54913 14.7627C1.61684 14.7989 1.69099 14.8213 1.76735 14.8287C1.8437 14.8361 1.92075 14.8283 1.9941 14.8058C2.06745 14.7832 2.13564 14.7463 2.19479 14.6973L13.6291 5.23731C13.7344 5.15201 13.8657 5.1055 14.001 5.1055C14.1363 5.1055 14.2675 5.15201 14.3728 5.23731L25.8076 14.6973C25.8667 14.7463 25.9348 14.7833 26.008 14.8059C26.0812 14.8285 26.1582 14.8364 26.2345 14.8292C26.3108 14.8219 26.3849 14.7996 26.4526 14.7636C26.5204 14.7276 26.5803 14.6785 26.6292 14.6191L27.8687 13.1055C27.9175 13.0458 27.9541 12.9771 27.9764 12.9032C27.9987 12.8293 28.0062 12.7517 27.9985 12.6749C27.9908 12.5981 27.9681 12.5235 27.9316 12.4556C27.8952 12.3876 27.8457 12.3275 27.7861 12.2788V12.2788Z" fill="white"/>
</g>
<defs>
<clipPath id="clip0_121:75">
<rect width="28" height="25" fill="white"/>
</clipPath>
</defs>
</svg>
