<svg width="1440" height="522" viewBox="0 0 1440 522" fill="none" xmlns="http://www.w3.org/2000/svg">
<path d="M1076.01 186.649C976.211 157.844 1040.63 54.7691 1038 0H0V520H1008.04C1137.29 492.34 1236.48 433.353 1217.71 325.878C1203.38 243.762 1155.55 209.608 1076.01 186.649Z" fill="#E3E9FF"/>
<path d="M754.883 294.777C733.893 393.122 762.495 459.322 819.224 521.127H1440.01V87.7741V0.228516H1196.5H953.001C902.881 20.3939 860.455 59.6094 861.029 107.643C861.402 135.516 874.056 163.601 853.941 182.898C813.184 221.993 768.76 229.756 754.883 294.777Z" fill="white"/>
<path d="M294.961 233.782C318.335 137.885 281.163 61.2666 217.99 1H-0.5V521H74.3374C130.151 501.337 177.397 463.097 176.757 416.259C176.341 389.079 162.251 361.694 184.651 342.877C230.036 304.755 279.507 297.186 294.961 233.782Z" fill="white"/>
<path d="M1402.32 405.099C1402.32 405.099 1404.01 414.679 1391.6 426.517C1378.94 438.58 1376.66 449.209 1376.66 449.209L1367.88 452.498C1367.88 452.498 1372.15 436.605 1382.79 427.379C1396.13 415.847 1402.32 405.099 1402.32 405.099Z" fill="#A9B9EB"/>
<path d="M1420.75 416.362C1420.75 416.362 1419.58 423.436 1408.03 429.927C1396.24 436.524 1392.06 443.747 1392.06 443.747L1384.85 446.205C1384.85 446.205 1391.97 434.073 1401.67 429.173C1413.79 423.036 1420.75 416.362 1420.75 416.362Z" fill="#A9B9EB"/>
<path d="M1382.12 415.37C1382.12 415.37 1374.47 417.423 1364.5 432.861C1356.36 445.441 1356.99 453.687 1351.96 461.377L1363.96 455.233C1366.64 449.474 1364.11 444.218 1370.92 432.464C1377.28 421.461 1382.12 415.37 1382.12 415.37Z" fill="#A9B9EB"/>
<path d="M1308.63 447.276C1308.63 447.276 1303.45 453.132 1304.06 471.324C1304.54 486.164 1310.95 490.294 1311.21 493.768L1316.63 488.201C1314.74 481.795 1310.27 480.969 1309.16 467.534C1308.12 454.932 1308.63 447.276 1308.63 447.276Z" fill="#A9B9EB"/>
<path d="M1363.99 420.96C1363.99 420.96 1355.47 431.359 1351.77 438.577C1346.49 448.829 1348.78 456.062 1344.16 466.91L1335.44 472.017C1335.44 472.017 1334.26 458.582 1341.3 446.185C1353.11 425.378 1363.99 420.96 1363.99 420.96Z" fill="#A9B9EB"/>
<path d="M1340.82 419.289C1339.52 426.63 1337.12 433.75 1333.7 440.416C1323.17 460.552 1328.86 480.473 1328.86 480.473L1322.77 483.135C1322.77 483.135 1312.75 467.185 1322.08 450.514C1331.96 432.912 1340.82 419.289 1340.82 419.289Z" fill="#A9B9EB"/>
<path d="M1362.94 456.572C1362.94 456.572 1368.72 456.569 1389.11 466.542C1402.18 472.937 1400.02 466.537 1411.54 474.764C1401.41 472.226 1395.52 478.029 1383.01 472.766C1373.01 468.55 1362.68 465.097 1352.12 462.444L1362.94 456.572Z" fill="#A9B9EB"/>
<path d="M1399.43 484.258C1399.43 484.258 1387.3 491.603 1368.84 483.783C1357.46 478.997 1345.36 476.057 1332.99 475.077L1342.09 467.794C1342.09 467.794 1351.96 464.97 1370.35 474.889C1382.99 481.701 1399.43 484.258 1399.43 484.258Z" fill="#A9B9EB"/>
<path d="M1381.75 497.82C1381.75 497.82 1369.62 505.166 1351.16 497.346C1339.79 492.559 1327.68 489.619 1315.32 488.64L1324.42 481.356C1324.42 481.356 1334.29 478.532 1352.68 488.452C1365.31 495.265 1381.75 497.82 1381.75 497.82Z" fill="#A9B9EB"/>
<path d="M1425.11 455.253C1425.11 455.253 1417.13 458.481 1405.65 453.112C1394.01 447.664 1384.19 447.129 1384.19 447.129L1388.86 444.844C1388.86 444.844 1395.1 443.06 1406.73 449.325C1414.72 453.635 1425.11 455.253 1425.11 455.253Z" fill="#A9B9EB"/>
<path d="M1376.98 451.025C1376.98 451.025 1386.64 453.314 1399.92 459.191C1408.31 462.875 1421.66 461.782 1421.66 461.782C1421.66 461.782 1408.4 470.738 1396.14 464.447C1382.09 457.227 1366.73 454.133 1366.73 454.133L1376.98 451.025Z" fill="#A9B9EB"/>
<path d="M1387.45 445.923C1387.45 445.923 1399.5 436.81 1413.36 438.943C1421.58 440.14 1429.96 439.998 1438.13 438.522C1438.13 438.522 1426.49 448.2 1413.99 444.914C1402.44 441.909 1392.01 446.414 1392.01 446.414L1387.45 445.923Z" fill="#A9B9EB"/>
<path d="M1312.19 494.343L1310.52 492.882C1319.82 482.941 1356.37 452.814 1391.81 443.708L1392.38 445.812C1357.43 454.795 1321.37 484.532 1312.19 494.343Z" fill="#A9B9EB"/>
<path d="M1330.07 433.986C1323.73 425.689 1322.87 415.011 1327.52 401.954C1334.15 414.178 1335.01 424.856 1330.07 433.986Z" fill="#A9B9EB"/>
<path d="M1338.85 415.928C1334.32 407.603 1335.07 397.871 1341.11 386.733C1345.36 398.639 1344.61 408.371 1338.85 415.928Z" fill="#A9B9EB"/>
<path d="M1348.5 398.066C1345.44 389.63 1347.55 380.587 1354.83 370.937C1357.13 382.698 1355.02 391.741 1348.5 398.066Z" fill="#A9B9EB"/>
<path d="M1370.24 360.95C1369.99 371.067 1366.6 378.193 1360.05 382.327C1359.07 374.799 1362.46 367.674 1370.24 360.95Z" fill="#A9B9EB"/>
<path d="M1383.94 357.423C1382.19 365.722 1378.31 371.1 1372.3 373.564C1372.63 367.236 1376.51 361.855 1383.94 357.423Z" fill="#A9B9EB"/>
<path d="M1379.11 374.168C1381.75 368.375 1387.36 364.696 1395.95 363.129C1391.24 370.272 1385.63 373.951 1379.11 374.168Z" fill="#A9B9EB"/>
<path d="M1363.04 421.919C1353.69 432.505 1343.67 437.241 1332.98 436.122C1338.65 427.295 1348.67 422.562 1363.04 421.919Z" fill="#A9B9EB"/>
<path d="M1349.68 404.759C1356.59 399.492 1365.66 398.56 1376.9 401.967C1366.66 407.562 1357.58 408.494 1349.68 404.759Z" fill="#A9B9EB"/>
<path d="M1382.02 390.822C1373.1 395.699 1365.21 396.508 1358.33 393.253C1364.33 388.662 1372.23 387.853 1382.02 390.822Z" fill="#A9B9EB"/>
<path d="M1369.31 383.351C1375.32 378.778 1383.22 377.967 1393 380.921C1384.08 385.799 1376.18 386.608 1369.31 383.351Z" fill="#A9B9EB"/>
<path d="M1325.92 454.355C1332.52 430.49 1333.11 432.452 1339.54 418.678C1341.27 414.956 1343.1 411.431 1345.04 408.106C1349.08 401.343 1353.87 395.023 1359.33 389.261C1365.58 382.383 1370.95 377.897 1375.44 375.81L1375.88 375.35C1375.95 375.177 1376.14 375.075 1376.33 375.114C1376.5 375.042 1376.7 375.044 1376.87 375.121C1377.02 375.251 1377.13 375.41 1377.21 375.591C1377.28 375.759 1377.28 375.952 1377.2 376.12L1377.03 376.479C1376.89 376.619 1376.73 376.732 1376.54 376.811V376.9L1376.14 377.047C1371.79 379.18 1366.58 383.567 1360.51 390.208C1355.15 395.945 1350.46 402.234 1346.51 408.961C1344.5 412.322 1342.66 415.779 1341.01 419.323L1340.59 420.248C1346.86 413.107 1356.45 410.177 1369.35 411.46C1359.56 419.689 1349.97 422.619 1340.59 420.248C1334.36 433.815 1333.95 431.451 1327.53 454.721L1325.92 454.355Z" fill="#A9B9EB"/>
<path d="M1069.5 477.964C1059.4 481.263 1048.65 478.764 1037.26 470.469C1051.31 468.107 1062.06 470.604 1069.5 477.964Z" fill="#A9B9EB"/>
<path d="M1054.47 464.315C1044.9 465.935 1035.57 462.247 1026.5 453.252C1039.49 452.994 1048.82 456.683 1054.47 464.315Z" fill="#A9B9EB"/>
<path d="M1039.9 449.927C1030.67 450.153 1022.44 445.427 1015.2 435.746C1027.46 437.243 1035.69 441.97 1039.9 449.927Z" fill="#A9B9EB"/>
<path d="M1010.14 418.464C1020 421.803 1025.95 427.127 1028 434.429C1020.3 433.023 1014.35 427.702 1010.14 418.464Z" fill="#A9B9EB"/>
<path d="M1010.89 404.743C1018.5 408.913 1022.59 414.147 1023.16 420.443C1017.05 418.194 1012.96 412.96 1010.89 404.743Z" fill="#A9B9EB"/>
<path d="M1025.85 414.349C1020.97 410.133 1019.09 403.828 1020.19 395.427C1025.75 401.967 1027.64 408.275 1025.85 414.349Z" fill="#A9B9EB"/>
<path d="M1067.8 443.853C1075.32 455.729 1076.88 466.427 1072.49 475.944C1065.57 467.999 1064 457.302 1067.8 443.853Z" fill="#A9B9EB"/>
<path d="M1046.83 450.9C1043.78 442.909 1045.66 434.256 1052.46 424.938C1054.81 436.105 1052.93 444.758 1046.83 450.9Z" fill="#A9B9EB"/>
<path d="M1043.09 416.795C1045.14 426.512 1043.51 434.041 1038.2 439.384C1035.54 432.433 1037.17 424.902 1043.09 416.795Z" fill="#A9B9EB"/>
<path d="M1031.85 426.209C1029.21 419.258 1030.85 411.73 1036.75 403.621C1038.8 413.345 1037.16 420.874 1031.85 426.209Z" fill="#A9B9EB"/>
<path d="M1088.23 488.057C1066.82 474.634 1068.93 474.69 1057.38 464.529C1054.26 461.787 1051.36 459.013 1048.7 456.211C1043.3 450.399 1038.57 444.038 1034.59 437.236C1029.75 429.358 1027 423.026 1026.34 418.24L1026.02 417.696C1025.87 417.578 1025.83 417.371 1025.93 417.209C1025.91 417.026 1025.97 416.843 1026.1 416.709C1026.27 416.612 1026.46 416.557 1026.66 416.545C1026.85 416.531 1027.04 416.591 1027.18 416.713L1027.48 416.981C1027.58 417.149 1027.64 417.337 1027.66 417.53L1027.74 417.559L1027.76 417.98C1028.52 422.641 1031.23 428.795 1035.88 436.439C1039.86 443.142 1044.6 449.405 1049.99 455.108C1052.67 458.002 1055.5 460.759 1058.47 463.369L1059.25 464.045C1054.16 456.069 1054.24 446.328 1059.47 434.824C1064.54 446.383 1064.46 456.124 1059.25 464.045C1070.66 473.963 1068.21 473.616 1089.08 486.694L1088.23 488.057Z" fill="#A9B9EB"/>
<path d="M1180.3 401.43C1180.3 401.43 1182.27 409.44 1172.43 420.108C1162.41 430.974 1161.07 440.082 1161.07 440.082L1153.83 443.325C1153.83 443.325 1156.55 429.659 1165.04 421.3C1175.67 410.846 1180.3 401.43 1180.3 401.43Z" fill="#A9B9EB"/>
<path d="M1196.51 409.984C1196.51 409.984 1195.92 416.027 1186.51 422.123C1176.91 428.323 1173.79 434.651 1173.79 434.651L1167.83 437.109C1167.83 437.109 1173.17 426.474 1181.1 421.82C1191 415.991 1196.51 409.984 1196.51 409.984Z" fill="#A9B9EB"/>
<path d="M1163.8 411.181C1163.8 411.181 1157.44 413.319 1149.87 426.9C1143.7 437.966 1144.7 444.905 1140.87 451.675L1150.67 445.848C1152.61 440.836 1150.18 436.526 1155.28 426.228C1160.05 416.583 1163.8 411.181 1163.8 411.181Z" fill="#A9B9EB"/>
<path d="M1103.44 442.03C1103.44 442.03 1099.39 447.255 1100.92 462.606C1102.17 475.128 1107.82 478.284 1108.23 481.207L1112.5 476.214C1110.54 470.898 1106.72 470.433 1105.02 459.131C1103.44 448.531 1103.44 442.03 1103.44 442.03Z" fill="#A9B9EB"/>
<path d="M1148.78 416.863C1148.78 416.863 1142.16 426.103 1139.43 432.404C1135.54 441.351 1137.88 447.346 1134.59 456.763L1127.5 461.539C1127.5 461.539 1125.75 450.24 1131 439.387C1139.83 421.17 1148.78 416.863 1148.78 416.863Z" fill="#A9B9EB"/>
<path d="M1129.09 416.67C1128.4 422.947 1126.77 429.091 1124.25 434.911C1116.48 452.491 1122.41 469.037 1122.41 469.037L1117.41 471.61C1117.41 471.61 1108.04 458.65 1114.99 444.065C1122.36 428.656 1129.09 416.67 1129.09 416.67Z" fill="#A9B9EB"/>
<path d="M1149.89 447.028C1149.89 447.028 1154.78 446.723 1172.58 454.08C1183.98 458.799 1181.79 453.502 1192 459.851C1183.29 458.241 1178.63 463.458 1167.76 459.664C1159.07 456.625 1150.15 454.251 1141.07 452.563L1149.89 447.028Z" fill="#A9B9EB"/>
<path d="M1182.3 468.517C1182.3 468.517 1172.45 475.367 1156.4 469.725C1146.51 466.278 1136.11 464.429 1125.6 464.253L1132.89 457.615C1132.89 457.615 1141.07 454.706 1157.18 462.127C1168.25 467.221 1182.3 468.517 1182.3 468.517Z" fill="#A9B9EB"/>
<path d="M1168.11 480.918C1168.11 480.918 1158.26 487.771 1142.21 482.13C1132.33 478.682 1121.92 476.833 1111.41 476.657L1118.7 470.019C1118.7 470.019 1126.89 467.111 1142.99 474.531C1154.06 479.623 1168.11 480.918 1168.11 480.918Z" fill="#A9B9EB"/>
<path d="M1202.39 442.639C1202.39 442.639 1195.81 445.791 1185.81 441.857C1175.66 437.862 1167.33 437.93 1167.33 437.93L1171.15 435.753C1171.15 435.753 1176.32 433.916 1186.51 438.601C1193.51 441.818 1202.39 442.639 1202.39 442.639Z" fill="#A9B9EB"/>
<path d="M1161.45 441.599C1161.45 441.599 1169.74 443.024 1181.3 447.296C1188.6 449.968 1199.83 448.34 1199.83 448.34C1199.83 448.34 1189.11 456.613 1178.4 451.937C1166.12 446.573 1152.95 444.763 1152.95 444.763L1161.45 441.599Z" fill="#A9B9EB"/>
<path d="M1170.01 436.733C1170.01 436.733 1179.69 428.393 1191.53 429.467C1198.55 430.047 1205.62 429.483 1212.46 427.805C1212.46 427.805 1203.16 436.603 1192.4 434.482C1182.47 432.551 1173.9 436.909 1173.9 436.909L1170.01 436.733Z" fill="#A9B9EB"/>
<path d="M1109.09 481.643L1107.6 480.495C1114.91 471.598 1144.12 444.199 1173.57 434.634L1174.18 436.382C1145.13 445.817 1116.3 472.86 1109.09 481.643Z" fill="#A9B9EB"/>
<path d="M823.598 402.867C823.598 402.867 820.863 411.185 830.387 423.216C840.095 435.474 840.763 445.205 840.763 445.205L848.153 449.19C848.153 449.19 846.394 434.535 838.107 425.044C827.723 413.176 823.598 402.867 823.598 402.867Z" fill="#A9B9EB"/>
<path d="M805.76 410.668C805.76 410.668 805.89 417.101 815.334 424.269C824.978 431.559 827.76 438.488 827.76 438.488L833.861 441.543C833.861 441.543 829.08 429.89 821.084 424.362C811.09 417.443 805.76 410.668 805.76 410.668Z" fill="#A9B9EB"/>
<path d="M840.249 414.441C840.249 414.441 846.789 417.19 853.686 432.127C859.307 444.3 857.687 451.559 861.18 459.009L851.296 452.096C849.651 446.648 852.571 442.278 848.026 431C843.77 420.443 840.249 414.441 840.249 414.441Z" fill="#A9B9EB"/>
<path d="M901.535 451.687C901.535 451.687 905.389 457.521 902.516 473.633C900.178 486.776 893.949 489.68 893.268 492.74L889.163 487.135C891.671 481.665 895.75 481.467 898.469 469.648C901.003 458.558 901.535 451.687 901.535 451.687Z" fill="#A9B9EB"/>
<path d="M855.659 421.601C855.659 421.601 861.901 431.879 864.269 438.748C867.653 448.506 864.686 454.665 867.402 464.874L874.506 470.469C874.506 470.469 877.281 458.659 872.608 446.78C864.771 426.842 855.659 421.601 855.659 421.601Z" fill="#A9B9EB"/>
<path d="M876.494 422.908C876.705 429.597 877.925 436.218 880.114 442.564C886.892 461.746 879.272 478.785 879.272 478.785L884.345 481.888C884.345 481.888 895.316 468.906 889.156 452.951C882.628 436.095 876.494 422.908 876.494 422.908Z" fill="#A9B9EB"/>
<path d="M852.024 453.408C852.024 453.408 846.878 452.71 827.457 459.124C815.014 463.239 817.759 457.807 806.446 463.737C815.789 462.702 820.289 468.574 832.091 465.399C841.531 462.854 851.159 461.029 860.892 459.94L852.024 453.408Z" fill="#A9B9EB"/>
<path d="M816.003 473.64C816.003 473.64 825.852 481.638 843.28 476.905C854.014 474.018 865.166 472.862 876.288 473.481L869.126 465.904C869.126 465.904 860.711 462.201 843.074 468.81C830.958 473.348 816.003 473.64 816.003 473.64Z" fill="#A9B9EB"/>
<path d="M829.989 487.838C829.989 487.838 839.839 495.836 857.267 491.103C868.001 488.216 879.152 487.06 890.274 487.679L883.113 480.102C883.113 480.102 874.697 476.399 857.061 483.008C844.942 487.547 829.989 487.838 829.989 487.838Z" fill="#A9B9EB"/>
<path d="M796.877 444.741C796.877 444.741 803.569 448.577 814.467 445.184C825.519 441.739 834.328 442.449 834.328 442.449L830.466 439.854C830.466 439.854 825.146 437.513 813.997 441.686C806.332 444.553 796.877 444.741 796.877 444.741Z" fill="#A9B9EB"/>
<path d="M840.244 446.78C840.244 446.78 831.356 447.652 818.788 451.28C810.852 453.546 799.119 450.965 799.119 450.965C799.119 450.965 809.768 460.533 821.479 456.411C834.906 451.682 848.968 450.779 848.968 450.779L840.244 446.78Z" fill="#A9B9EB"/>
<path d="M831.587 440.981C831.587 440.981 822.036 431.42 809.43 431.649C801.959 431.723 794.527 430.587 787.443 428.287C787.443 428.287 796.557 438.303 808.101 436.885C818.763 435.604 827.462 440.87 827.462 440.87L831.587 440.981Z" fill="#A9B9EB"/>
<path d="M892.329 493.133L893.996 492.032C886.999 482.067 858.355 450.859 827.994 438.486L827.211 440.289C857.15 452.491 885.417 483.295 892.329 493.133Z" fill="#A9B9EB"/>
<path d="M989.971 133.296C992.195 131.668 994.864 130.854 997.977 130.854C1004.7 130.854 1008.26 134.398 1008.26 139.377C1008.26 142.25 1006.82 145.173 1003.91 148.093C1000.2 151.875 997.532 153.744 995.853 153.744C994.223 153.744 993.035 152.499 993.035 151.014C993.035 149.672 994.319 148.331 996.543 146.369C996.692 146.225 996.839 146.083 996.938 146.034C999.458 143.783 1000.25 142.539 1000.25 141.007C1000.25 139.091 998.916 138.039 996.988 138.039C996.099 138.039 995.06 138.231 993.825 138.614C992.59 138.997 991.701 139.19 991.156 139.19C989.772 139.19 988.192 138.041 988.192 136.125C988.192 135.116 988.786 134.158 989.971 133.296ZM996.742 165.236C993.728 165.236 991.701 163.033 991.701 160.35C991.701 158.051 993.726 155.848 996.742 155.848C999.361 155.848 1001.39 158.051 1001.39 160.35C1001.39 162.987 999.46 165.236 996.742 165.236Z" fill="white"/>
<path d="M1327.74 260.57C1329.48 259.294 1331.57 258.656 1334.01 258.656C1339.28 258.656 1342.07 261.434 1342.07 265.337C1342.07 267.588 1340.95 269.878 1338.66 272.168C1335.75 275.131 1333.66 276.595 1332.35 276.595C1331.07 276.595 1330.14 275.62 1330.14 274.455C1330.14 273.403 1331.14 272.353 1332.89 270.815C1333 270.701 1333.12 270.588 1333.2 270.552C1335.17 268.787 1335.79 267.812 1335.79 266.611C1335.79 265.108 1334.75 264.283 1333.24 264.283C1332.54 264.283 1331.72 264.432 1330.76 264.733C1329.79 265.034 1329.09 265.183 1328.66 265.183C1327.58 265.183 1326.34 264.283 1326.34 262.78C1326.34 261.998 1326.81 261.247 1327.74 260.57ZM1333.04 285.605C1330.68 285.605 1329.09 283.878 1329.09 281.777C1329.09 279.976 1330.68 278.249 1333.04 278.249C1335.1 278.249 1336.68 279.976 1336.68 281.777C1336.69 283.84 1335.18 285.605 1333.04 285.605Z" fill="white"/>
<path d="M1243.52 288.575H1162.78C1161.35 288.575 1160.19 287.453 1160.19 286.071V218.729C1160.19 217.344 1161.35 216.225 1162.78 216.225C1164.21 216.225 1165.36 217.347 1165.36 218.729V283.564H1243.51C1244.94 283.564 1246.1 284.686 1246.1 286.068C1246.1 287.453 1244.94 288.575 1243.52 288.575Z" fill="#CDD8FA"/>
<path d="M1168.89 272.114C1168.25 272.114 1167.6 271.88 1167.1 271.411C1166.07 270.45 1166.04 268.863 1167.03 267.869L1193.13 241.715C1193.99 240.853 1195.36 240.704 1196.39 241.354L1208.73 249.109L1221.74 234.458C1222.68 233.411 1224.31 233.29 1225.39 234.193C1226.47 235.096 1226.59 236.676 1225.66 237.725L1211.18 254.032C1210.34 254.981 1208.9 255.181 1207.82 254.499L1195.37 246.677L1170.75 271.348C1170.24 271.859 1169.57 272.114 1168.89 272.114Z" fill="#F5A3B7"/>
<path d="M1225.72 245.196L1222.04 237.969L1214.11 235.518L1231.75 227.026L1225.72 245.196Z" fill="#F5A3B7"/>
<path d="M934.686 168.948C926.832 168.948 920.441 162.756 920.441 155.145C920.441 147.535 926.832 141.342 934.686 141.342C942.541 141.342 948.931 147.535 948.931 155.145C948.931 162.756 942.541 168.948 934.686 168.948ZM934.686 145.144C928.994 145.144 924.365 149.629 924.365 155.145C924.365 160.661 928.996 165.146 934.686 165.146C940.379 165.146 945.008 160.659 945.008 155.145C945.008 149.629 940.376 145.144 934.686 145.144Z" fill="white"/>
<path d="M1400.47 335.655C1393.68 335.655 1388.15 330.301 1388.15 323.716C1388.15 317.133 1393.68 311.778 1400.47 311.778C1407.27 311.778 1412.79 317.133 1412.79 323.716C1412.79 330.301 1407.27 335.655 1400.47 335.655ZM1400.47 315.067C1395.55 315.067 1391.54 318.948 1391.54 323.718C1391.54 328.488 1395.55 332.369 1400.47 332.369C1405.39 332.369 1409.4 328.488 1409.4 323.718C1409.4 318.948 1405.39 315.067 1400.47 315.067Z" fill="white"/>
<path d="M821.506 334.242C816.34 334.242 812.136 330.171 812.136 325.163C812.136 320.157 816.338 316.084 821.506 316.084C826.672 316.084 830.876 320.155 830.876 325.163C830.876 330.168 826.672 334.242 821.506 334.242ZM821.506 318.585C817.764 318.585 814.718 321.537 814.718 325.163C814.718 328.791 817.764 331.741 821.506 331.741C825.251 331.741 828.295 328.789 828.295 325.163C828.295 321.537 825.251 318.585 821.506 318.585Z" fill="white"/>
<path d="M1377.55 263.902C1373.97 263.902 1371.06 261.078 1371.06 257.609C1371.06 254.137 1373.97 251.312 1377.55 251.312C1381.14 251.312 1384.05 254.137 1384.05 257.609C1384.05 261.078 1381.13 263.902 1377.55 263.902ZM1377.55 253.046C1374.96 253.046 1372.84 255.093 1372.84 257.606C1372.84 260.122 1374.96 262.166 1377.55 262.166C1380.15 262.166 1382.26 260.12 1382.26 257.606C1382.26 255.09 1380.15 253.046 1377.55 253.046Z" fill="#E3EAFF"/>
<path d="M870.778 229.105C875.893 227.053 878.322 221.371 876.203 216.415C874.084 211.459 868.221 209.106 863.106 211.159C857.992 213.212 855.563 218.893 857.682 223.849C859.8 228.805 865.664 231.158 870.778 229.105Z" fill="#E3EAFF"/>
<path d="M1188.07 121.091C1188.07 126.455 1183.58 130.803 1178.05 130.803C1172.51 130.803 1168.02 126.455 1168.02 121.091C1168.02 115.727 1172.51 111.378 1178.05 111.378C1183.58 111.378 1188.07 115.727 1188.07 121.091Z" fill="#E3EAFF"/>
<path d="M1270.04 222.489C1270.04 225.949 1267.15 228.754 1263.58 228.754C1260.01 228.754 1257.11 225.949 1257.11 222.489C1257.11 219.03 1260.01 216.225 1263.58 216.225C1267.15 216.225 1270.04 219.03 1270.04 222.489Z" fill="white"/>
<path d="M1421.34 351.791C1421.34 355.251 1418.45 358.056 1414.87 358.056C1411.3 358.056 1408.41 355.251 1408.41 351.791C1408.41 348.331 1411.3 345.526 1414.87 345.526C1418.45 345.526 1421.34 348.331 1421.34 351.791Z" fill="white"/>
<path d="M1379.52 238.402C1379.52 243.766 1375.03 248.114 1369.5 248.114C1363.96 248.114 1359.47 243.766 1359.47 238.402C1359.47 233.038 1363.96 228.689 1369.5 228.689C1375.03 228.692 1379.52 233.038 1379.52 238.402Z" fill="#E3EAFF"/>
<path d="M966.622 133.178C966.622 137.531 962.982 141.058 958.489 141.058C953.997 141.058 950.357 137.528 950.357 133.178C950.357 128.825 953.997 125.297 958.489 125.297C962.982 125.295 966.622 128.825 966.622 133.178Z" fill="white"/>
<path d="M1037.77 304.56C1037.77 308.913 1034.13 312.441 1029.64 312.441C1025.15 312.441 1021.51 308.911 1021.51 304.56C1021.51 300.207 1025.15 296.68 1029.64 296.68C1034.13 296.68 1037.77 300.207 1037.77 304.56Z" fill="white"/>
<path d="M1119.1 519.552C1270.19 519.552 1392.68 509.804 1392.68 497.78C1392.68 485.755 1270.19 476.007 1119.1 476.007C968 476.007 845.511 485.755 845.511 497.78C845.511 509.804 968 519.552 1119.1 519.552Z" fill="#95A6DB"/>
<path d="M976.845 499.77L967.338 499.722L992.345 390.927L1001.44 392.781L976.845 499.77Z" fill="#617AC9"/>
<path d="M1207.38 499.77L1216.89 499.722L1191.88 390.927L1182.79 392.781L1207.38 499.77Z" fill="#617AC9"/>
<path d="M1149.46 482.134C1147.61 482.134 1146.11 480.682 1146.11 478.891V420.705H1152.8V478.891C1152.8 480.682 1151.3 482.134 1149.46 482.134Z" fill="#0E6A41"/>
<path d="M1068.83 482.134C1066.98 482.134 1065.48 480.682 1065.48 478.891V420.705H1072.17V478.891C1072.17 480.682 1070.67 482.134 1068.83 482.134Z" fill="#0E6A41"/>
<path d="M1153.23 420.823H1063.66C1060.68 420.823 1058.26 418.483 1058.26 415.594V414.609C1058.26 411.72 1060.68 409.379 1063.66 409.379H1153.23C1156.21 409.379 1158.63 411.72 1158.63 414.609V415.594C1158.63 418.48 1156.21 420.823 1153.23 420.823Z" fill="#3F964F"/>
<path d="M1138.71 313.538C1144.83 315.27 1168.39 339.755 1174.03 357.871C1170.97 374.161 1144.28 382.621 1144.28 382.621L1143.84 369.998C1143.84 369.998 1152.6 364.342 1156.61 357.871C1150.23 353.409 1137.64 338.402 1137.64 338.402L1138.71 313.538Z" fill="#201D40"/>
<path d="M1079.93 313.538C1073.81 315.27 1058.63 338.804 1052.41 360.081C1036.14 370.345 1023.37 381.612 1023.37 381.612L1038.49 382.578C1038.49 382.578 1058.32 377.842 1068.83 366.798C1073.2 358.155 1081 338.402 1081 338.402L1079.93 313.538Z" fill="#201D40"/>
<path d="M1119.27 309.01L1098.68 309.896L1096.6 329.419L1098.84 385.13L1120.56 384.867L1126.24 322.502L1119.27 309.01Z" fill="#95A6DB"/>
<path d="M1094.78 279.514C1097.65 276.321 1099.91 279.417 1104 275.464C1108.09 271.51 1111.37 268.665 1114.87 272.837C1118.37 277.01 1120.17 277.595 1122.72 277.356C1125.27 277.118 1125.25 287.269 1125.25 287.269C1125.25 287.269 1131.48 285.677 1131.98 278.916C1132.56 270.947 1128.75 272.144 1126.69 265.775C1124.63 259.41 1116.66 255.817 1113.01 257.346C1109.17 258.957 1107.15 260.731 1101.55 259.412C1095.95 258.095 1091.13 259.691 1091.14 266.724C1091.15 273.757 1082.62 271.657 1085.35 280.44C1086.41 283.847 1089.38 286.982 1090.76 286.71C1092.6 286.342 1092.93 281.572 1094.78 279.514Z" fill="#2C2858"/>
<path d="M1123.67 286.303C1122.3 288.869 1122.69 292.043 1124.55 293.391C1126.4 294.739 1129.02 293.752 1130.39 291.188C1131.77 288.621 1131.37 285.448 1129.52 284.1C1127.66 282.752 1125.05 283.739 1123.67 286.303Z" fill="#F37A50"/>
<path d="M1126.15 292.124C1126.2 292.129 1126.25 292.124 1126.3 292.11C1126.58 292.033 1126.77 291.703 1126.71 291.373C1126.44 289.712 1126.58 288.484 1127.13 287.824C1127.87 286.936 1129.18 287.201 1129.19 287.203C1129.47 287.261 1129.75 287.039 1129.81 286.707C1129.87 286.375 1129.69 286.055 1129.41 285.995C1129.34 285.978 1127.55 285.602 1126.41 286.97C1125.58 287.957 1125.34 289.531 1125.69 291.65C1125.74 291.92 1125.93 292.108 1126.15 292.124Z" fill="#DE623C"/>
<path d="M1102.05 313.923L1109.21 319.415L1116.48 313.923L1117.45 300.506H1101.08L1102.05 313.923Z" fill="#DE623C"/>
<path d="M1079.7 313.538L1080.07 385.13C1087.08 390.706 1100.83 392.23 1100.83 392.23L1098.33 311.198L1079.7 313.538Z" fill="#2C2858"/>
<path d="M1139.34 313.538L1138.97 385.13C1131.96 390.706 1118.85 392.382 1118.85 392.382L1120.71 311.198L1139.34 313.538Z" fill="#2C2858"/>
<path d="M1088.26 322.673L1100.1 372.155L1098.3 310.324L1088.26 322.673Z" fill="#494C7F"/>
<path d="M1131.4 319.247L1119.27 372.721L1120.71 311.198L1131.4 319.247Z" fill="#494C7F"/>
<path d="M1108.97 266.071C1087.86 265.59 1092.68 293.15 1094.22 297.482C1095.06 299.844 1100.41 308.899 1109.03 309.029C1117.64 308.901 1122.89 299.844 1123.73 297.482C1125.27 293.153 1130.82 266.394 1108.97 266.071Z" fill="#F37A50"/>
<path d="M1105.27 285.718C1105.49 285.607 1105.66 285.419 1105.74 285.181C1105.91 284.685 1105.63 284.151 1105.12 283.987C1104.96 283.939 1101.31 282.809 1097.98 285.123C1097.54 285.427 1097.44 286.019 1097.76 286.443C1098.07 286.866 1098.68 286.965 1099.12 286.659C1101.65 284.899 1104.48 285.773 1104.51 285.783C1104.77 285.865 1105.05 285.833 1105.27 285.718Z" fill="#2C2858"/>
<path d="M1114.62 285.718C1114.41 285.607 1114.24 285.419 1114.16 285.181C1113.99 284.685 1114.27 284.151 1114.78 283.987C1114.93 283.939 1118.59 282.809 1121.91 285.123C1122.35 285.427 1122.45 286.019 1122.14 286.443C1121.82 286.866 1121.21 286.965 1120.78 286.659C1118.25 284.899 1115.41 285.773 1115.39 285.783C1115.13 285.865 1114.85 285.833 1114.62 285.718Z" fill="#2C2858"/>
<path d="M1118.55 288.747C1118.55 289.669 1117.77 290.415 1116.82 290.415C1115.87 290.415 1115.1 289.669 1115.1 288.747C1115.1 287.825 1115.87 287.078 1116.82 287.078C1117.77 287.078 1118.55 287.825 1118.55 288.747Z" fill="black"/>
<path d="M1104.15 288.503C1104.15 289.426 1103.38 290.172 1102.43 290.172C1101.48 290.172 1100.7 289.426 1100.7 288.503C1100.7 287.581 1101.48 286.835 1102.43 286.835C1103.38 286.835 1104.15 287.584 1104.15 288.503Z" fill="black"/>
<path d="M1110.07 289.787C1111.13 292.086 1112.48 294.901 1112.48 294.901C1112.48 294.901 1111.36 297.024 1108.32 296.644C1109.68 296.302 1111.07 295.637 1110.79 293.904C1110.5 292.173 1110.07 289.787 1110.07 289.787Z" fill="#DE623C"/>
<path d="M1111.09 324.546L1114.7 371.541L1109.29 377.735L1103.87 371.541L1107.57 324.668L1111.09 324.546Z" fill="#201D40"/>
<path d="M1113.07 319.497L1109.47 318.58L1105.79 319.654L1107.56 324.756L1111.1 324.695L1113.07 319.497Z" fill="#201D40"/>
<path d="M1109.29 318.589C1109.29 318.589 1106.9 321.974 1102.67 323.891L1095.57 313.449L1098.68 309.895L1109.29 318.589Z" fill="white"/>
<path d="M1109.29 318.589C1109.29 318.589 1112.74 322.492 1116.1 323.662L1122.53 312.39L1119.5 309.009L1109.29 318.589Z" fill="white"/>
<path d="M1092.27 284.478C1094.65 285.249 1095.43 272.587 1104.71 278.579C1111.24 282.798 1123.4 282.131 1120.97 276.408C1122.92 277.809 1125.76 280.595 1125.76 280.595L1121.46 266.83C1121.46 266.83 1103.76 261.437 1097.47 266.9C1091.19 272.363 1092.27 284.478 1092.27 284.478Z" fill="#2C2858"/>
<path d="M1095.95 286.804C1097.35 289.474 1096.54 292.601 1094.12 293.793C1091.71 294.985 1088.61 293.788 1087.21 291.118C1085.81 288.45 1086.62 285.321 1089.04 284.129C1091.45 282.937 1094.54 284.134 1095.95 286.804Z" fill="#F37A50"/>
<path d="M1092.29 292.401C1092.23 292.401 1092.17 292.392 1092.11 292.375C1091.77 292.276 1091.58 291.932 1091.68 291.607C1092.2 289.972 1092.15 288.737 1091.55 288.036C1090.75 287.09 1089.11 287.247 1089.1 287.249C1088.75 287.285 1088.43 287.042 1088.4 286.705C1088.36 286.368 1088.61 286.064 1088.95 286.026C1089.05 286.016 1091.27 285.788 1092.52 287.244C1093.43 288.294 1093.55 289.883 1092.9 291.966C1092.82 292.23 1092.57 292.401 1092.29 292.401Z" fill="#DE623C"/>
<path d="M1109.94 302.082C1106.93 302.082 1104.34 300.496 1104.16 300.318C1103.85 300.024 1103.84 299.54 1104.14 299.239C1104.43 298.96 1104.88 298.936 1105.19 299.172C1105.42 299.314 1110.67 302.441 1114.12 298.762C1114.41 298.452 1114.91 298.428 1115.23 298.712C1115.55 298.996 1115.58 299.477 1115.29 299.788C1113.91 301.252 1112.19 302.022 1110.17 302.078C1110.09 302.082 1110.02 302.082 1109.94 302.082Z" fill="#DE623C"/>
<path d="M1149.46 397.079L1134.8 383.991H1086.38L1068.82 396.995L1088.65 410.916H1132.57L1149.46 397.079Z" fill="#201D40"/>
<path d="M1081.46 472.891C1076.97 482.31 1060.71 480.733 1063.58 491.194C1066.44 501.657 1096.16 484.968 1096.16 484.968C1095.61 482.413 1093.92 476.425 1092.91 474.148L1081.46 472.891Z" fill="black"/>
<path d="M1137.5 472.417C1142.19 482.245 1159.16 480.6 1156.17 491.519C1153.18 502.438 1122.16 485.023 1122.16 485.023C1122.74 482.358 1124.5 476.108 1125.56 473.731L1137.5 472.417Z" fill="black"/>
<path d="M1095.13 415.839C1095.02 400.796 1081.92 384.087 1068.83 395.295C1055.1 407.049 1077.28 473.818 1077.28 473.818C1085.44 478.542 1089.34 478.388 1097.78 473.818C1097.78 473.818 1095.24 430.357 1095.13 415.839Z" fill="#2C2858"/>
<path d="M1126.08 415.839C1126.19 400.796 1139.12 390.4 1149.46 397.079C1160.65 404.311 1142.33 475.351 1142.33 475.351C1139.17 476.827 1129.94 477.781 1123.5 476.006C1123.5 476.009 1125.97 430.357 1126.08 415.839Z" fill="#2C2858"/>
<path d="M1242.89 499.77C1241.05 499.77 1239.55 498.318 1239.55 496.527V439.08H1246.24V496.527C1246.24 498.318 1244.74 499.77 1242.89 499.77Z" fill="#0E6A41"/>
<path d="M1266.38 499.77C1264.53 499.77 1263.03 498.318 1263.03 496.527V439.08H1269.72V496.527C1269.72 498.318 1268.22 499.77 1266.38 499.77Z" fill="#0E6A41"/>
<path d="M1297.19 499.77C1295.34 499.77 1293.84 498.318 1293.84 496.527V439.08H1300.53V496.527C1300.53 498.318 1299.03 499.77 1297.19 499.77Z" fill="#0E6A41"/>
<path d="M1320.66 499.77C1318.82 499.77 1317.32 498.318 1317.32 496.527V439.08H1324.01V496.527C1324.01 498.318 1322.51 499.77 1320.66 499.77Z" fill="#0E6A41"/>
<path d="M1283.64 353.823V422.186C1283.64 422.963 1282.99 423.594 1282.19 423.594H1238.44C1234.03 423.594 1230.45 427.061 1230.45 431.337C1230.45 435.613 1234.03 439.08 1238.44 439.08H1283.64H1291.63C1296.05 439.08 1299.62 435.613 1299.62 431.337V423.594V353.823C1299.62 349.547 1296.05 346.08 1291.63 346.08C1287.22 346.08 1283.64 349.545 1283.64 353.823Z" fill="#3F964F"/>
<path d="M1326.22 346.08H1291.63V424.849H1326.22V346.08Z" fill="#3F964F"/>
<path d="M1318.23 353.823V422.186C1318.23 422.963 1317.58 423.594 1316.77 423.594H1273.03C1268.62 423.594 1265.04 427.061 1265.04 431.337C1265.04 435.613 1268.62 439.08 1273.03 439.08H1318.23H1326.22C1330.63 439.08 1334.21 435.613 1334.21 431.337V423.594V353.823C1334.21 349.547 1330.63 346.08 1326.22 346.08C1321.8 346.08 1318.23 349.545 1318.23 353.823Z" fill="#0E6A41"/>
<path d="M1248.88 369.177C1252.2 370.968 1252.24 382.125 1251.1 382.78C1212.78 385.361 1203.12 384.005 1203.12 384.005L1203.6 377.688C1203.6 377.688 1225.7 370.939 1248.88 369.177Z" fill="#F37A50"/>
<path d="M1284.96 348.774C1279.08 357.892 1254.62 382.563 1250.62 382.912L1246.1 369.463C1246.1 369.463 1269.04 340.051 1273.11 335.518C1280.15 327.649 1294.6 333.904 1284.96 348.774Z" fill="#F37A50"/>
<path d="M1196.57 376.792C1198.7 376.847 1200.96 377.016 1204 377.524L1206.22 378.646L1205.99 382.298C1202.79 386.543 1193.23 387.231 1192.36 387.231C1190.09 387.231 1189.02 387.369 1188.87 387.06C1188.72 386.752 1188.34 384.761 1191.65 384.658C1195.8 384.53 1193.36 381.116 1184.76 383.434C1182.6 384.015 1178.76 382.698 1180.32 381.34C1182.03 379.847 1186.86 376.541 1196.57 376.792Z" fill="#F37A50"/>
<path d="M1270.89 300.053C1270.18 290.718 1272.96 282.47 1280.65 278.271C1288.43 274.014 1298.19 278.189 1298.19 278.189C1298.19 278.189 1306.44 275.343 1313.93 283.329C1321.41 291.316 1315.75 298.343 1318.81 304.168C1320.62 307.618 1329.84 308.328 1327.46 319.562C1326.77 322.803 1322.75 324.984 1319.34 325.201C1313.36 325.581 1307.78 323.34 1305.36 325.581C1297.37 332.968 1279.65 330.298 1277.17 323.539C1276.4 321.445 1260.46 325.499 1262.05 311.227C1262.86 303.997 1271.52 308.395 1270.89 300.053Z" fill="#0D0C1A"/>
<path d="M1285.49 330.23L1298.15 327.967L1302.89 334.085L1292.81 354.117L1277.97 341.92L1285.49 330.23Z" fill="#F37A50"/>
<path d="M1269.09 378.53C1269.31 374.719 1262.95 359.067 1266.3 351.189C1268.73 344.852 1272.8 334.213 1277.79 332.438C1280.14 331.6 1282.56 331.018 1285.49 330.233C1285.49 330.233 1283.84 338.219 1287.28 338.486C1293.92 339.002 1298.15 327.97 1298.15 327.97C1301.72 327.637 1318.13 332.862 1318.12 334.167C1318.08 344.39 1309.51 359.305 1306.71 370.359C1305.6 382.296 1309.9 396.581 1309.92 397.938C1309.92 397.938 1283.53 405.128 1267.88 396.783C1267.56 395.617 1268.79 383.794 1269.09 378.53Z" fill="#E62552"/>
<path d="M1305.94 385.671C1305.94 385.671 1311.77 399.912 1313.19 408.879C1314.61 417.842 1306.59 423.594 1306.59 423.594H1239.92C1239.92 423.594 1232.78 412.377 1234.84 404.632C1236.89 396.886 1241.62 395.656 1241.62 395.656L1305.94 385.671Z" fill="#E62552"/>
<path d="M1239.03 395.259C1247.54 394.096 1272.24 403.394 1282.78 423.594H1253.31L1239.03 395.259Z" fill="#DE623C"/>
<path d="M1248.36 402.694C1247.26 401.526 1246.26 400.088 1245.38 398.588C1242.9 394.346 1236.91 393.631 1233.53 397.243C1221.24 410.369 1195.05 440.296 1189.21 444.021C1187.56 445.073 1177.93 450.444 1168.78 449.383C1168.78 449.383 1164.26 451.049 1167.27 454.525C1168.82 456.314 1192.08 458.163 1192.08 458.163L1193.89 451.545C1207.43 441.835 1224.28 442.533 1238.58 424.781C1246.44 415.006 1248.36 402.694 1248.36 402.694Z" fill="#DE623C"/>
<path d="M1187.37 461.98L1178.01 467.866L1176.72 466.381L1184.31 459.521C1180 456.225 1170.01 458.975 1170.01 458.975C1166.74 456.926 1160.36 450.286 1159.7 446.727C1161.8 444.197 1168.77 449.402 1168.77 449.402C1168.52 450.529 1170.72 454.434 1172.48 455.101C1180.1 456.695 1187.69 454.595 1193.89 451.547C1193.89 451.545 1199.07 459.148 1187.37 461.98Z" fill="#201D40"/>
<path d="M1248.5 404.477C1250.2 404.923 1251.47 406.305 1251.72 408C1252.39 412.582 1255.83 421.861 1251.17 431.576C1239.74 455.431 1232.99 471.148 1231.79 477.304C1234.77 482.724 1222.86 497.528 1222.69 498.499L1214.12 495.898C1214.12 495.898 1219.04 488.808 1220.8 486.034C1225.02 479.423 1225.71 471.311 1226.4 465.025C1229.33 438.182 1224.29 421.232 1244.34 405.486C1245.52 404.554 1247.02 404.092 1248.5 404.477Z" fill="#F37A50"/>
<path d="M1236.06 488.659L1235.21 499.44L1233.21 499.532L1232.19 489.523C1226.87 490.847 1223.07 500.21 1223.07 500.21C1219.4 501.489 1210.09 502.377 1206.77 500.726C1205.96 497.577 1214.46 495.357 1214.46 495.357C1215.23 496.238 1219.77 496.907 1221.38 495.961C1227.31 491.054 1230.54 483.93 1231.79 477.307C1231.79 477.304 1240.83 477.925 1236.06 488.659Z" fill="#201D40"/>
<path d="M1288.69 320.219L1298.96 318.729L1298.15 327.97C1298.15 327.97 1296.18 332.157 1293.9 332.438L1285.49 330.233L1288.69 320.219Z" fill="#F37A50"/>
<path d="M1308.47 306.857C1305.82 317.59 1296.61 324.654 1287.92 322.637C1279.22 320.619 1274.31 310.281 1276.97 299.547C1279.62 288.814 1288.82 281.75 1297.52 283.768C1306.22 285.788 1311.12 296.124 1308.47 306.857Z" fill="#F37A50"/>
<path d="M1281.04 302.367C1280.66 303.113 1279.72 303.414 1278.95 303.043C1278.18 302.672 1277.87 301.767 1278.25 301.023C1278.64 300.277 1279.57 299.973 1280.34 300.347C1281.11 300.717 1281.42 301.623 1281.04 302.367Z" fill="black"/>
<path d="M1293.26 305.287C1292.85 306.094 1291.83 306.421 1291 306.022C1290.17 305.622 1289.83 304.64 1290.25 303.833C1290.66 303.027 1291.67 302.699 1292.5 303.101C1293.33 303.503 1293.67 304.481 1293.26 305.287Z" fill="black"/>
<path d="M1295.12 303.937C1295.01 303.881 1294.91 303.79 1294.85 303.667C1294.01 301.902 1291.73 301.558 1291.7 301.555C1291.38 301.51 1291.16 301.223 1291.21 300.913C1291.25 300.602 1291.55 300.388 1291.87 300.431C1291.99 300.448 1294.8 300.857 1295.91 303.19C1296.05 303.474 1295.92 303.811 1295.63 303.944C1295.46 304.019 1295.28 304.011 1295.12 303.937Z" fill="#0D0C1A"/>
<path d="M1277.65 300.183C1277.59 300.156 1277.54 300.12 1277.49 300.072C1277.26 299.851 1277.27 299.49 1277.5 299.27C1279.28 297.561 1281.49 298.269 1281.58 298.3C1281.88 298.401 1282.04 298.726 1281.94 299.022C1281.84 299.319 1281.5 299.475 1281.2 299.374C1281.12 299.35 1279.57 298.873 1278.32 300.077C1278.14 300.253 1277.86 300.289 1277.65 300.183Z" fill="#0D0C1A"/>
<path d="M1282.04 305.646C1281.19 306.496 1280.44 307.372 1279.62 307.871C1279.35 308.039 1279.26 308.393 1279.42 308.667C1280.08 309.799 1282 310.731 1283.18 311.215C1283.35 311.285 1283.49 311.068 1283.35 310.947C1282.16 309.936 1281.65 309.192 1281.44 308.783C1281.33 308.581 1281.33 308.34 1281.44 308.138C1281.68 307.671 1282.17 306.72 1282.5 305.93C1282.61 305.658 1282.25 305.434 1282.04 305.646Z" fill="#DE623C"/>
<path d="M1304.28 306.927C1302.17 308.521 1301.55 311.172 1302.89 312.847C1304.24 314.523 1307.04 314.59 1309.16 312.997C1311.27 311.403 1311.89 308.752 1310.55 307.076C1309.2 305.4 1306.4 305.333 1304.28 306.927Z" fill="#F37A50"/>
<path d="M1305.49 312.361C1305.41 312.322 1305.34 312.267 1305.28 312.195C1304.47 311.147 1304.39 309.972 1305.08 309.05C1305.78 308.106 1307.08 307.673 1308.17 308.022C1308.47 308.121 1308.64 308.441 1308.54 308.74C1308.44 309.036 1308.11 309.199 1307.8 309.101C1307.2 308.911 1306.42 309.178 1306.03 309.712C1305.65 310.225 1305.71 310.866 1306.22 311.513C1306.41 311.764 1306.36 312.12 1306.1 312.308C1305.91 312.44 1305.68 312.452 1305.49 312.361Z" fill="#DE623C"/>
<path d="M1291.66 314.203C1291.9 313.883 1291.64 313.435 1291.23 313.483C1290.19 313.603 1288.47 313.767 1286.83 313.767C1285.19 313.767 1283.48 313.603 1282.44 313.483C1282.03 313.435 1281.77 313.883 1282.01 314.203C1282.76 315.188 1284.32 316.683 1286.84 316.683C1289.35 316.683 1290.9 315.19 1291.66 314.203Z" fill="white"/>
<path d="M1308.68 305.908C1298.3 304.56 1283.77 294.311 1282.58 289.048C1284.59 282.728 1295.29 279.552 1301.33 282.48C1307.37 285.407 1313.08 297.956 1308.68 305.908Z" fill="#0D0C1A"/>
<path d="M1360.57 315.532C1354.93 312.903 1356.13 307.801 1356.13 307.801C1353.67 308.112 1348.12 329.903 1347.05 342.905C1334.77 337.186 1314.46 330.746 1309.89 331.536C1309.89 331.536 1303.52 332.024 1303.93 339.553C1304.3 346.273 1313.15 348.076 1313.15 348.076C1313.15 348.076 1352.06 358.643 1355.97 355.167C1362.05 349.759 1359.24 322.201 1360.57 315.532Z" fill="#F37A50"/>
<path d="M1366.88 312.794C1364.4 313.817 1360.82 313.683 1360.65 316.225L1354.77 315.585L1353.39 312.763C1355.25 304.599 1365.04 299.087 1366.05 298.642C1368.66 297.484 1369.82 296.781 1370.16 297.058C1370.5 297.335 1372.01 299.437 1368.26 301.24C1363.56 303.505 1368.22 306.188 1376.86 299.131C1379.02 297.364 1384.15 296.923 1383.1 299.278C1381.94 301.866 1378.18 308.133 1366.88 312.794Z" fill="#F37A50"/>
<path d="M961.149 500.507H961.417C963.581 500.507 965.338 498.807 965.338 496.707V431.751H957.23V496.707C957.23 498.807 958.985 500.507 961.149 500.507Z" fill="#0E6A41"/>
<path d="M932.703 500.507H932.972C935.136 500.507 936.893 498.807 936.893 496.707V431.751H928.785V496.707C928.783 498.807 930.539 500.507 932.703 500.507Z" fill="#0E6A41"/>
<path d="M891.457 496.835C891.457 498.865 893.27 500.509 895.512 500.509C897.75 500.509 899.567 498.865 899.567 496.835V431.754H891.457V496.835Z" fill="#0E6A41"/>
<path d="M866.932 500.507H867.201C869.365 500.507 871.122 498.807 871.122 496.707V431.751H863.014V496.707C863.011 498.807 864.768 500.507 866.932 500.507Z" fill="#0E6A41"/>
<path d="M911.919 328.463V411.284C911.919 412.225 912.706 412.991 913.68 412.991H966.675C972.022 412.991 976.355 417.192 976.355 422.371C976.355 427.552 972.022 431.751 966.675 431.751H911.919H902.238C896.891 431.751 892.557 427.552 892.557 422.371V412.991V328.463C892.557 323.282 896.891 319.083 902.238 319.083C907.585 319.083 911.919 323.284 911.919 328.463Z" fill="#3F964F"/>
<path d="M860.34 414.514H902.24V319.084H860.34V414.514Z" fill="#3F964F"/>
<path d="M870.021 328.463V411.284C870.021 412.226 870.808 412.991 871.783 412.991H924.777C930.124 412.991 934.458 417.193 934.458 422.371C934.458 427.553 930.124 431.752 924.777 431.752H870.021H860.34C854.993 431.752 850.66 427.553 850.66 422.371V412.991V328.463C850.66 323.282 854.993 319.083 860.34 319.083C865.685 319.083 870.021 323.285 870.021 328.463Z" fill="#0E6A41"/>
<path d="M984.284 328.983C981.648 326.323 978.602 325.194 978.562 320.362C978.547 318.606 978.701 316.772 978.801 314.641C978.955 311.352 979.628 308.591 980.336 308.453C981.941 308.143 982.468 309 982.726 310.943C982.925 312.445 982.038 314.444 983.136 315.301C984.113 316.062 985.504 316.553 988.884 312.741C993.197 307.876 993.853 305.439 995.65 306.626C996.83 307.404 994.882 309.994 990.911 314.67C993.89 313.052 997.503 305.608 999.7 307.555C1001.29 308.969 994.281 315.898 992.171 317.282C996.606 315.597 999.732 309.308 1000.97 309.949C1003.48 311.417 998.127 317.465 994.251 319.208C998.425 318.505 999.819 314.733 1000.9 315.51C1002.93 316.964 996.808 323.193 992.203 325.317C990.844 325.945 984.284 328.983 984.284 328.983Z" fill="#F37A50"/>
<path d="M985.554 317.277C985.942 318.479 986.359 320.072 985.323 321.7C984.332 323.258 982.075 323.51 982.075 323.51C983.541 323.867 985.127 323.547 986.058 322.208C987.182 320.602 986.7 318.327 985.554 317.277Z" fill="#DE623C"/>
<path d="M954.942 343.605C963.959 336.962 977.022 322.196 977.022 322.196C982.197 324.392 984.928 329.937 984.928 329.937C978.689 351.729 959.328 369.793 950.519 371.098C942.479 372.29 922.119 334.699 931.998 316.468L936.128 315.585C947.359 320.935 954.942 343.605 954.942 343.605Z" fill="#C4204A"/>
<path d="M998.592 489.275L1008.21 491.637L1012.14 483.335C1011.73 483.042 1011.1 477.526 1010.71 473.324L995.187 475.4C995.95 479.637 997.232 485.18 998.592 489.275Z" fill="#F37A50"/>
<path d="M1015.57 494.17C1015.57 494.17 1018.89 488.753 1023.11 488.411C1023.11 488.411 1031.06 488.852 1033.85 492.092C1034.72 493.111 1034.39 495.282 1034.04 496.672C1033.83 497.541 1033.07 498.482 1030.71 499.2C1027.24 500.259 1022.56 500.907 1013.94 498.74C1003.59 496.142 1001.93 497.211 998.11 496.017C994.147 494.779 995.419 490.084 996.502 485.512C996.5 485.512 999.384 491.108 1015.57 494.17Z" fill="#201D40"/>
<path d="M1012.4 482.524C1012.4 482.524 1017.02 485.235 1023.06 486.579C1026.44 487.33 1035.44 489.022 1033.99 494.842C1033.78 495.711 1033.02 496.652 1030.67 497.37C1027.19 498.429 1022.51 499.077 1013.89 496.91C1003.54 494.309 1001.88 495.381 998.061 494.187C994.097 492.949 995.926 487.621 997.007 483.049C997.104 484.209 997.658 487.255 1004.85 489.983C1007 490.794 1005.24 481.621 1012.4 482.524Z" fill="#2C2858"/>
<path d="M1011.06 489.533C1011.4 489.511 1011.71 489.275 1011.79 488.933C1012.52 486.087 1015.56 485.887 1015.69 485.878C1016.14 485.854 1016.48 485.48 1016.46 485.045C1016.43 484.609 1016.05 484.274 1015.6 484.296C1014.09 484.366 1011.03 485.348 1010.21 488.55C1010.1 488.974 1010.36 489.405 1010.8 489.508C1010.89 489.533 1010.97 489.537 1011.06 489.533Z" fill="#494C7F"/>
<path d="M1014.85 491.006C1015.19 490.985 1015.5 490.749 1015.58 490.407C1016.32 487.561 1019.35 487.361 1019.48 487.351C1019.93 487.327 1020.27 486.954 1020.25 486.518C1020.22 486.083 1019.84 485.748 1019.39 485.77C1017.89 485.839 1014.82 486.824 1014 490.024C1013.89 490.448 1014.15 490.876 1014.59 490.982C1014.68 491.004 1014.76 491.011 1014.85 491.006Z" fill="#494C7F"/>
<path d="M961.02 492.786L970.442 495.798L974.964 487.785C974.577 487.465 973.225 481.636 973.143 477.42L958.632 478.713C959.084 482.991 959.961 488.608 961.02 492.786Z" fill="#F37A50"/>
<path d="M945.381 388.847C966.864 392.649 997.377 406.134 1000.39 409.202C1006.6 415.539 1009.65 437.33 1012.58 476.144L993.776 477.36C986.836 447.038 980.306 433.818 979.24 421.502C979.24 421.502 962.764 422.608 937.971 413.336C925.749 408.766 913.015 403.433 916.68 392.736C919.602 384.215 924.897 385.222 945.381 388.847Z" fill="#201D40"/>
<path d="M921.351 390.66C939.201 392.447 963.007 412.238 966.017 415.305C972.233 421.642 973.016 443.28 975.948 482.093L957.235 483.764C954.207 463.656 945.351 440.617 945.376 425.851C945.376 425.851 928.626 422.333 902.7 416.682C888.517 413.591 884.261 411.463 881.55 402.489C880.628 399.436 879.376 392.363 880.792 390.783C887.056 383.804 904.457 388.97 921.351 390.66Z" fill="#2C2858"/>
<path d="M977.595 498.824C977.595 498.824 981.308 493.645 985.534 493.592C985.534 493.592 993.436 494.575 995.982 497.998C996.783 499.072 996.288 501.217 995.843 502.58C995.565 503.432 994.738 504.321 992.342 504.875C988.802 505.693 984.085 506.021 975.637 503.271C965.502 499.973 963.778 500.928 960.051 499.477C956.187 497.972 957.797 493.376 959.208 488.888C959.206 488.89 961.678 494.669 977.595 498.824Z" fill="#201D40"/>
<path d="M975.282 486.993C975.282 486.993 979.692 490.012 985.619 491.762C988.936 492.742 997.796 495.044 995.928 500.75C995.65 501.602 994.822 502.488 992.427 503.045C988.886 503.863 984.17 504.191 975.722 501.441C965.587 498.143 963.862 499.098 960.135 497.647C956.271 496.142 958.483 490.951 959.894 486.463C959.906 487.626 960.239 490.703 967.214 493.915C969.294 494.873 968.208 485.606 975.282 486.993Z" fill="#2C2858"/>
<path d="M971.853 494.197C972.199 494.175 972.504 493.939 972.591 493.597C973.322 490.751 976.356 490.552 976.485 490.542C976.935 490.515 977.28 490.145 977.255 489.709C977.23 489.273 976.85 488.938 976.4 488.96C974.892 489.03 971.826 490.012 971.003 493.214C970.894 493.638 971.162 494.069 971.6 494.173C971.687 494.194 971.771 494.202 971.853 494.197Z" fill="#494C7F"/>
<path d="M975.645 495.67C975.99 495.648 976.296 495.412 976.383 495.07C977.113 492.225 980.15 492.025 980.276 492.015C980.726 491.991 981.071 491.618 981.047 491.182C981.022 490.746 980.642 490.412 980.192 490.433C978.684 490.503 975.617 491.485 974.795 494.688C974.686 495.111 974.954 495.542 975.391 495.646C975.478 495.668 975.563 495.675 975.645 495.67Z" fill="#494C7F"/>
<path d="M909.566 298.151H909.573L916.694 298.178L918.309 314.475L909.995 318.73L901.13 314.523L902.564 298.178L909.566 298.151Z" fill="#DE623C"/>
<path d="M908.634 296.244C902.494 298.339 897.39 291.251 897.39 291.251C893.385 291.472 893.174 287.601 893.174 287.601C891.216 287.454 888.331 286.077 888.333 282.518C888.336 279.504 891.27 279.008 890.868 275.568C890.545 272.806 887.019 266.63 895.783 264.189C895.783 264.189 894.843 259.128 899.902 256.773C906.104 253.884 908.604 257.344 911.628 257.404C915.007 257.472 921.234 253.123 923.793 260.113C923.793 260.113 928.39 259.224 931.238 261.993C933.891 264.572 933.63 268.662 932.639 270.36C932.639 270.36 936.585 270.774 938.205 273.957C939.291 276.09 939.057 279.203 937.064 281.122C935.797 282.343 934.416 282.73 934.416 282.73C932.972 283.291 933.777 287.199 932.632 288.234C930.793 289.9 928.688 291.249 926.504 292.428L908.634 296.244Z" fill="#2C2858"/>
<path d="M896.339 287.38C897.512 298.753 907.391 307.999 916.61 307.105C925.828 306.212 930.9 295.517 929.724 284.144C928.551 272.77 920.126 264.273 910.905 265.167C901.686 266.06 895.164 276.006 896.339 287.38Z" fill="#F37A50"/>
<path d="M924.946 288.275C925.232 289.091 926.146 289.53 926.989 289.253C927.831 288.976 928.283 288.09 927.997 287.274C927.712 286.457 926.797 286.019 925.955 286.296C925.113 286.573 924.66 287.459 924.946 288.275Z" fill="black"/>
<path d="M912.513 288.513C912.821 289.397 913.812 289.871 914.724 289.573C915.636 289.274 916.125 288.314 915.817 287.43C915.509 286.546 914.518 286.072 913.606 286.371C912.691 286.669 912.204 287.63 912.513 288.513Z" fill="black"/>
<path d="M919.877 288.586C921.495 290.769 923.537 293.432 923.537 293.432C923.537 293.432 922.836 295.886 919.571 296.119C920.918 295.479 922.225 294.494 921.544 292.744C920.863 290.991 919.877 288.586 919.877 288.586Z" fill="#DE623C"/>
<path d="M910.343 286.542C910.284 286.525 910.226 286.501 910.169 286.472C909.782 286.26 909.647 285.783 909.866 285.41C910.462 284.387 912.217 282.627 914.575 283.274C915.002 283.4 915.251 283.823 915.129 284.237C915.007 284.652 914.562 284.892 914.135 284.774C912.388 284.295 911.275 286.161 911.263 286.18C911.079 286.498 910.694 286.64 910.343 286.542Z" fill="#2C2858"/>
<path d="M924.832 285.152C924.72 285.121 924.618 285.063 924.531 284.977C924.278 284.717 924.288 284.305 924.556 284.059C924.598 284.021 925.602 283.113 926.949 283.241C927.868 283.327 928.688 283.857 929.386 284.815C929.6 285.109 929.528 285.513 929.225 285.721C928.922 285.928 928.504 285.858 928.291 285.564C927.828 284.928 927.332 284.582 926.817 284.534C926.084 284.464 925.485 284.996 925.478 285.001C925.299 285.164 925.05 285.213 924.832 285.152Z" fill="#2C2858"/>
<path d="M931.871 272.59L911.26 261.269L891.738 276.752L897.9 291.528C896.864 284.32 901.863 285.661 903.712 283.099C905.588 280.501 905.871 277.005 912.048 278.739C912.048 278.739 915.859 274.802 919.107 278.532C921.619 281.416 923.893 280.28 926.34 279.945C929.225 279.548 929.148 282.362 930.865 281.91L931.871 272.59Z" fill="#2C2858"/>
<path d="M898.881 286.32C900.829 288.234 901.095 291.039 899.48 292.583C897.862 294.126 894.973 293.825 893.027 291.911C891.079 289.997 890.813 287.192 892.428 285.649C894.043 284.105 896.933 284.404 898.881 286.32Z" fill="#F37A50"/>
<path d="M896.883 291.74C896.97 291.711 897.05 291.663 897.12 291.595C898.101 290.627 898.342 289.431 897.771 288.393C897.184 287.331 895.909 286.715 894.739 286.929C894.411 286.989 894.195 287.298 894.257 287.615C894.319 287.936 894.637 288.143 894.965 288.083C895.606 287.965 896.367 288.343 896.7 288.944C897.018 289.522 896.861 290.17 896.252 290.77C896.019 291.001 896.021 291.374 896.26 291.6C896.429 291.766 896.672 291.812 896.883 291.74Z" fill="#DE623C"/>
<path d="M923.674 299.714C923.972 299.363 923.694 298.835 923.227 298.869C922.034 298.951 920.064 299.047 918.19 298.958C916.319 298.871 914.366 298.592 913.186 298.399C912.721 298.322 912.393 298.821 912.657 299.199C913.462 300.364 915.156 302.155 918.024 302.288C920.893 302.423 922.757 300.8 923.674 299.714Z" fill="white"/>
<path d="M880.797 391.101C880.797 391.101 895.701 392.591 909.667 392.68C923.634 392.581 938.538 389.955 938.538 389.955C938.538 389.955 936.662 365.103 936.853 355.559C937.124 344.599 936.127 330.069 936.127 315.585C936.127 315.585 926.221 314.039 920.633 313.372C919.723 313.264 918.931 313.18 918.312 313.127C918.312 313.127 915.129 319.598 901.254 313.127C900.526 313.057 899.624 313.059 898.613 313.117C892.784 313.454 883.399 315.585 883.399 315.585C883.399 330.028 882.797 344.185 882.999 355.145C882.375 364.922 880.797 391.101 880.797 391.101Z" fill="#E62552"/>
<path d="M919.487 355.131C918.362 351.799 916.235 349.612 918.257 345.457C918.993 343.947 919.905 342.438 920.896 340.653C922.429 337.899 924.181 335.802 924.847 335.968C926.355 336.344 926.44 337.288 925.833 339.055C925.364 340.422 923.754 341.778 924.33 342.95C924.842 343.993 925.826 344.968 930.343 343.056C936.11 340.613 937.708 338.788 938.742 340.523C939.42 341.662 936.649 343.102 931.258 345.519C934.498 345.324 940.764 340.393 941.815 342.938C942.581 344.787 933.621 347.92 931.225 348.259C935.743 348.589 941.097 344.45 941.882 345.495C943.41 347.761 936.249 350.799 932.187 350.742C936.063 351.808 938.863 349.133 939.462 350.236C940.575 352.29 932.681 355.179 927.834 355.157C926.397 355.152 919.487 355.131 919.487 355.131Z" fill="#F37A50"/>
<path d="M886.254 351.859C897.554 351.093 916.834 345.685 916.834 345.685C919.92 350.269 919.065 356.361 919.065 356.361C901.515 371.269 875.102 376.089 866.997 372.502C859.597 369.225 864.82 325.584 883.399 315.587L884.042 315.645C890.411 326.087 886.254 351.859 886.254 351.859Z" fill="#C4204A"/>
<path d="M898.613 313.117C899.577 314.68 900.943 315.862 902.869 316.801C905.918 318.291 910.062 318.924 912.614 318.729C914.634 318.575 916.876 317.776 918.312 316.673C919.837 315.501 920.498 314.005 920.635 313.372C919.726 313.264 918.794 313.127 918.173 313.074C918.173 313.074 915.129 319.598 901.254 313.127C900.524 313.057 899.622 313.062 898.613 313.117Z" fill="#C4204A"/>
<path d="M937.204 382.717H1001.77L1014.52 343.451C1015.11 341.638 1013.71 339.791 1011.75 339.791H953.267C951.998 339.791 950.877 340.588 950.497 341.76L937.204 382.717Z" fill="#7F95DB"/>
<path d="M942.101 382.717H1006.67L1019.41 343.451C1020 341.638 1018.6 339.791 1016.64 339.791H958.165C956.895 339.791 955.774 340.588 955.394 341.76L942.101 382.717Z" fill="#95A6DB"/>
<path d="M980.113 362.028C979.402 364.452 980.667 366.927 982.94 367.553C985.214 368.179 987.631 366.72 988.345 364.293C989.055 361.869 987.79 359.394 985.517 358.768C983.243 358.144 980.823 359.603 980.113 362.028Z" fill="#B4C2F0"/>
<path d="M900.521 378.617H942.101V382.618H896.391C896.391 380.411 898.24 378.617 900.521 378.617Z" fill="#7F95DB"/>
<path d="M1242.29 382.717H1179.46L1167.06 344.51C1166.49 342.745 1167.85 340.949 1169.76 340.949H1226.66C1227.89 340.949 1228.98 341.724 1229.35 342.866L1242.29 382.717Z" fill="#7F95DB"/>
<path d="M1237.52 382.718H1174.7L1162.29 344.51C1161.72 342.746 1163.08 340.95 1164.99 340.95H1221.89C1223.13 340.95 1224.22 341.725 1224.59 342.866L1237.52 382.718Z" fill="#95A6DB"/>
<path d="M1200.53 362.587C1201.23 364.946 1200 367.354 1197.78 367.963C1195.57 368.572 1193.21 367.152 1192.52 364.792C1191.83 362.433 1193.06 360.025 1195.27 359.416C1197.49 358.807 1199.84 360.227 1200.53 362.587Z" fill="#B4C2F0"/>
<path d="M1277.98 378.728H1237.52V382.621H1282C1282 380.471 1280.2 378.728 1277.98 378.728Z" fill="#7F95DB"/>
<path d="M1302.9 393.217H876.129C871.601 393.217 867.931 390.824 867.931 387.872C867.931 384.92 871.601 382.527 876.129 382.527H1302.9C1307.43 382.527 1311.1 384.92 1311.1 387.872C1311.09 390.824 1307.42 393.217 1302.9 393.217Z" fill="#617AC9"/>
<path d="M1143.18 380.319H1071.51L1068.84 340.338C1068.66 337.678 1070.84 335.426 1073.59 335.426H1141.11C1143.86 335.426 1146.04 337.678 1145.86 340.338L1143.18 380.319Z" fill="#B4C2F0"/>
<path d="M1143.18 382.53H1071.51L1068.84 342.548C1068.66 339.888 1070.84 337.636 1073.59 337.636H1141.11C1143.86 337.636 1146.04 339.888 1145.86 342.548L1143.18 382.53Z" fill="#95A6DB"/>
<path d="M1110.46 362.012C1110.46 364.299 1108.55 366.15 1106.19 366.15C1103.83 366.15 1101.92 364.297 1101.92 362.012C1101.92 359.727 1103.83 357.873 1106.19 357.873C1108.55 357.873 1110.46 359.724 1110.46 362.012Z" fill="#B4C2F0"/>
<path d="M1140.9 379.953C1141.03 379.785 1141.18 379.652 1141.35 379.532C1141.32 379.513 1141.29 379.493 1141.26 379.474C1139.51 378.254 1138.84 376.279 1139.74 375.068C1139.89 374.868 1140.07 374.707 1140.28 374.575C1139.5 373.484 1139.34 372.232 1139.98 371.368C1140.24 371.023 1140.6 370.783 1141.02 370.636C1140.16 369.596 1140 368.24 1140.72 367.272C1141.62 366.061 1143.56 365.924 1145.05 366.969C1146.54 368.011 1147.01 369.839 1146.11 371.05C1145.88 371.356 1145.58 371.594 1145.25 371.76C1146.64 372.983 1147.11 374.697 1146.3 375.793C1146.15 375.993 1145.96 376.154 1145.76 376.286C1146.54 377.377 1146.7 378.629 1146.05 379.493C1145.82 379.811 1145.49 380.045 1145.11 380.194C1145.91 381.085 1146.09 382.291 1145.45 383.143C1144.69 384.167 1143.05 384.282 1141.79 383.401C1140.54 382.52 1140.14 380.974 1140.9 379.953Z" fill="#F37A50"/>
<path d="M1033.56 384.87C1033.4 384.74 1033.26 384.583 1033.15 384.415C1033.13 384.444 1033.11 384.47 1033.09 384.499C1031.74 386.124 1029.67 386.68 1028.47 385.744C1028.27 385.59 1028.12 385.402 1027.99 385.195C1026.83 385.893 1025.53 385.989 1024.67 385.32C1024.33 385.055 1024.1 384.694 1023.96 384.282C1022.85 385.055 1021.44 385.149 1020.48 384.398C1019.28 383.461 1019.23 381.576 1020.39 380.189C1021.54 378.803 1023.44 378.439 1024.65 379.376C1024.95 379.612 1025.18 379.91 1025.33 380.247C1026.67 378.966 1028.46 378.588 1029.55 379.436C1029.74 379.59 1029.9 379.778 1030.03 379.985C1031.19 379.287 1032.49 379.19 1033.35 379.86C1033.67 380.108 1033.89 380.433 1034.02 380.811C1034.98 380.081 1036.24 379.97 1037.08 380.63C1038.1 381.422 1038.13 383.014 1037.16 384.184C1036.19 385.354 1034.58 385.662 1033.56 384.87Z" fill="#F37A50"/>
<path d="M886.495 499.77L876.988 499.722L901.995 390.927L911.086 392.781L886.495 499.77Z" fill="#617AC9"/>
<path d="M1281.03 499.77L1290.54 499.722L1265.53 390.927L1256.44 392.781L1281.03 499.77Z" fill="#617AC9"/>
<path d="M1248.51 144.34L1254.12 179.908C1254.34 181.264 1253.38 182.528 1251.98 182.735L1188.19 192.192C1186.79 192.399 1185.48 191.47 1185.27 190.114L1179.66 154.546C1179.44 153.191 1180.4 151.927 1181.8 151.72L1245.59 142.262C1246.99 142.053 1248.29 142.982 1248.51 144.34Z" fill="#F3BC3D"/>
<path d="M1248.51 144.342L1248.82 146.309L1222.94 170.846C1220.45 173.311 1216.58 173.915 1213.41 172.341L1179.83 155.673L1179.66 154.551C1179.44 153.195 1180.4 151.931 1181.8 151.722L1245.59 142.264C1246.99 142.057 1248.29 142.987 1248.51 144.342Z" fill="#F3CD75"/>
<path d="M928.328 240.441H994.241C999.441 240.441 1003.66 236.357 1003.66 231.318V204.064C1003.66 199.027 999.441 194.941 994.241 194.941H928.328C923.127 194.941 918.913 199.024 918.913 204.064V231.318C918.913 236.357 923.127 240.441 928.328 240.441Z" fill="white"/>
<path d="M930.914 238.402V255.34C930.914 256.7 932.803 257.138 933.439 255.925L942.625 238.402H930.914Z" fill="white"/>
<path d="M929.963 209.164H991.81C994.188 209.164 996.117 207.296 996.117 204.991C996.117 202.687 994.188 200.819 991.81 200.819H929.963C927.585 200.819 925.657 202.687 925.657 204.991C925.657 207.296 927.585 209.164 929.963 209.164Z" fill="#E3EAFF"/>
<path d="M929.963 222.4H991.81C994.188 222.4 996.117 220.532 996.117 218.228C996.117 215.924 994.188 214.055 991.81 214.055H929.963C927.585 214.055 925.657 215.924 925.657 218.228C925.657 220.532 927.585 222.4 929.963 222.4Z" fill="#E3EAFF"/>
<path d="M929.331 235.638H969.02C971.05 235.638 972.695 234.044 972.695 232.077V230.851C972.695 228.884 971.05 227.291 969.02 227.291H929.331C927.301 227.291 925.657 228.884 925.657 230.851V232.077C925.657 234.044 927.301 235.638 929.331 235.638Z" fill="#E3EAFF"/>
<path d="M1079.73 265.045H1008.41C1002.78 265.045 998.225 260.627 998.225 255.176V217.116C998.225 211.665 1002.78 207.247 1008.41 207.247H1079.73C1085.35 207.247 1089.91 211.665 1089.91 217.116V255.176C1089.91 260.627 1085.35 265.045 1079.73 265.045Z" fill="#CDD8FA"/>
<path d="M1076.93 262.84V281.167C1076.93 282.638 1074.89 283.112 1074.2 281.8L1064.26 262.84H1076.93Z" fill="#CDD8FA"/>
<path d="M1319.17 219.321L1240.7 189.613C1235.72 187.726 1233.25 182.282 1235.2 177.452L1271.1 88.4415C1273.04 83.6117 1278.66 81.2258 1283.65 83.1134L1362.12 112.824C1367.1 114.711 1369.56 120.155 1367.61 124.985L1331.72 213.993C1329.77 218.823 1324.15 221.207 1319.17 219.321Z" fill="#9AB3FF"/>
<path d="M1298.09 117.967L1290.36 115.042L1263.57 181.486L1271.3 184.412L1298.09 117.967Z" fill="white"/>
<path d="M1309.63 122.339L1301.9 119.413L1275.11 185.858L1282.84 188.783L1309.63 122.339Z" fill="white"/>
<path d="M1321.17 126.748L1313.44 123.821L1286.64 190.266L1294.37 193.192L1321.17 126.748Z" fill="white"/>
<path d="M1332.71 131.081L1324.98 128.156L1298.19 194.601L1305.92 197.526L1332.71 131.081Z" fill="white"/>
<path d="M1344.25 135.445L1336.52 132.52L1309.73 198.964L1317.46 201.89L1344.25 135.445Z" fill="white"/>
<path d="M1300.47 112.046L1292.75 109.121L1291.33 112.63L1299.06 115.556L1300.47 112.046Z" fill="white"/>
<path d="M1286.67 113.646L1278.94 110.72L1277.53 114.23L1285.26 117.155L1286.67 113.646Z" fill="white"/>
<path d="M1282.21 124.721L1274.48 121.795L1273.06 125.305L1280.79 128.23L1282.21 124.721Z" fill="white"/>
<path d="M1277.74 135.796L1270.01 132.871L1268.6 136.38L1276.33 139.306L1277.74 135.796Z" fill="white"/>
<path d="M1273.27 146.869L1265.55 143.944L1264.13 147.453L1271.86 150.379L1273.27 146.869Z" fill="white"/>
<path d="M1273.27 146.869L1265.55 143.944L1264.13 147.453L1271.86 150.379L1273.27 146.869Z" fill="white"/>
<path d="M1268.81 157.949L1261.08 155.024L1259.66 158.533L1267.39 161.459L1268.81 157.949Z" fill="white"/>
<path d="M1264.34 169.025L1256.61 166.099L1255.2 169.609L1262.93 172.534L1264.34 169.025Z" fill="white"/>
<path d="M1312.02 116.409L1304.29 113.483L1302.88 116.993L1310.6 119.918L1312.02 116.409Z" fill="white"/>
<path d="M1323.56 120.82L1315.83 117.894L1314.42 121.403L1322.14 124.33L1323.56 120.82Z" fill="white"/>
<path d="M1335.1 125.186L1327.38 122.259L1325.96 125.769L1333.69 128.695L1335.1 125.186Z" fill="white"/>
<path d="M1346.64 129.516L1338.91 126.59L1337.5 130.1L1345.23 133.025L1346.64 129.516Z" fill="white"/>
<path d="M1349.38 123.196L1289.25 100.429C1286.91 99.5458 1285.76 96.9937 1286.67 94.7329C1287.59 92.4697 1290.22 91.3526 1292.55 92.2362L1352.68 115.003C1355.02 115.887 1356.17 118.439 1355.26 120.702C1354.35 122.963 1351.71 124.08 1349.38 123.196Z" fill="white"/>
<path d="M1058.48 250.606C1058.48 251.374 1058.34 252.118 1058.09 252.824C1056.81 256.368 1052.56 258.973 1047.51 258.973C1042.46 258.973 1038.2 256.37 1036.93 252.824C1036.67 252.118 1036.54 251.374 1036.54 250.606H1058.48Z" fill="#95A6DB"/>
<path d="M1058.48 250.606C1058.48 251.374 1058.34 252.118 1058.09 252.824H1036.93C1036.67 252.118 1036.54 251.374 1036.54 250.606H1058.48Z" fill="#7F95DB"/>
<path d="M1070.48 214.749C1070.48 202.468 1060.21 192.507 1047.54 192.491C1035.04 192.474 1024.76 202.232 1024.54 214.34C1024.44 219.637 1026.25 224.517 1029.35 228.384C1033.27 233.276 1035.45 239.269 1035.45 245.461V245.57H1059.57V245.461C1059.57 239.259 1061.76 233.266 1065.68 228.362C1068.69 224.601 1070.48 219.878 1070.48 214.749Z" fill="#F3BC3D"/>
<path d="M1050.98 243.053C1050.92 243.053 1050.85 243.043 1050.79 243.022C1050.48 242.918 1050.32 242.593 1050.43 242.297C1050.46 242.222 1053.17 234.66 1055.13 226.958C1058.62 213.309 1056.83 211.089 1055.89 210.769C1053.15 209.828 1050.96 211.219 1049.61 212.555C1049.21 212.948 1048.83 213.391 1048.48 213.872C1049.06 214.855 1049.59 215.941 1050.03 217.089C1051.25 220.238 1051.58 223.18 1050.9 224.957C1050.38 226.33 1049.27 227.023 1047.78 226.915C1046.38 226.811 1045.35 226.024 1044.81 224.635C1044.19 223.043 1044.27 220.701 1045.03 218.211C1045.51 216.639 1046.23 215.127 1047.09 213.822C1046.28 212.58 1045.35 211.511 1044.33 210.793C1042.82 209.724 1041.4 209.678 1040.11 210.653C1037.45 212.669 1037.35 218.729 1039.81 228.179C1041.72 235.464 1044.51 242.201 1044.54 242.268C1044.66 242.56 1044.51 242.892 1044.21 243.007C1043.91 243.125 1043.57 242.983 1043.45 242.692C1043.42 242.625 1040.6 235.825 1038.68 228.468C1036.05 218.399 1036.28 212.103 1039.38 209.755C1041.08 208.465 1043.09 208.506 1045.02 209.871C1045.99 210.555 1046.94 211.58 1047.81 212.832C1048.12 212.445 1048.44 212.084 1048.77 211.756C1051.02 209.534 1053.69 208.802 1056.29 209.693C1057.9 210.247 1058.57 212.356 1058.31 216.14C1058.13 218.931 1057.44 222.663 1056.27 227.232C1054.29 234.983 1051.57 242.588 1051.54 242.666C1051.45 242.906 1051.23 243.053 1050.98 243.053ZM1047.76 214.939C1047.1 216.032 1046.54 217.26 1046.16 218.534C1045.48 220.758 1045.39 222.889 1045.91 224.235C1046.29 225.205 1046.93 225.711 1047.87 225.781C1048.84 225.85 1049.45 225.465 1049.8 224.565C1050.57 222.513 1049.63 218.327 1047.76 214.939Z" fill="white"/>
<path d="M1057.53 251.334H1037.48C1035.09 251.334 1033.15 249.456 1033.15 247.139V246.964C1033.15 244.647 1035.09 242.77 1037.48 242.77H1057.53C1059.92 242.77 1061.86 244.647 1061.86 246.964V247.139C1061.86 249.456 1059.92 251.334 1057.53 251.334Z" fill="#95A6DB"/>
<path d="M1086.53 215.664H1079.02C1077.95 215.664 1077.09 214.824 1077.09 213.789C1077.09 212.753 1077.95 211.913 1079.02 211.913H1086.53C1087.6 211.913 1088.47 212.753 1088.47 213.789C1088.47 214.824 1087.6 215.664 1086.53 215.664Z" fill="#F3BC3D"/>
<path d="M1015.99 215.664H1008.48C1007.41 215.664 1006.55 214.824 1006.55 213.789C1006.55 212.753 1007.41 211.913 1008.48 211.913H1015.99C1017.06 211.913 1017.93 212.753 1017.93 213.789C1017.93 214.824 1017.06 215.664 1015.99 215.664Z" fill="#F3BC3D"/>
<path d="M1020.77 200.264L1014.79 195.856C1013.94 195.23 1013.77 194.053 1014.42 193.227C1015.07 192.403 1016.28 192.242 1017.13 192.871L1023.11 197.277C1023.96 197.903 1024.13 199.08 1023.48 199.906C1022.83 200.732 1021.62 200.893 1020.77 200.264Z" fill="#F3BC3D"/>
<path d="M1073.87 200.264L1079.84 195.856C1080.69 195.23 1080.86 194.053 1080.21 193.227C1079.56 192.403 1078.35 192.242 1077.5 192.871L1071.52 197.277C1070.67 197.903 1070.5 199.08 1071.15 199.906C1071.8 200.732 1073.02 200.893 1073.87 200.264Z" fill="#F3BC3D"/>
<path d="M1020.77 229.635L1014.79 234.042C1013.94 234.67 1013.77 235.845 1014.42 236.671C1015.07 237.494 1016.28 237.655 1017.13 237.027L1023.11 232.621C1023.96 231.993 1024.13 230.818 1023.48 229.992C1022.83 229.168 1021.62 229.01 1020.77 229.635Z" fill="#F3BC3D"/>
<path d="M1073.87 229.635L1079.84 234.042C1080.69 234.67 1080.86 235.845 1080.21 236.671C1079.56 237.494 1078.35 237.655 1077.5 237.027L1071.52 232.621C1070.67 231.993 1070.5 230.818 1071.15 229.992C1071.8 229.168 1073.02 229.01 1073.87 229.635Z" fill="#F3BC3D"/>
<path d="M1105.65 165.674H1028.56C1026.61 165.674 1025.04 164.145 1025.04 162.26V112.554C1025.04 110.669 1026.61 109.14 1028.56 109.14H1105.65C1107.6 109.14 1109.18 110.669 1109.18 112.554V162.26C1109.17 164.145 1107.6 165.674 1105.65 165.674Z" fill="#9AB3FF"/>
<path d="M1092.88 128.24H1033.43C1031.33 128.24 1029.64 126.598 1029.64 124.571V123.379C1029.64 121.352 1031.33 119.71 1033.43 119.71H1092.88C1094.97 119.71 1096.67 121.352 1096.67 123.379V124.571C1096.67 126.598 1094.97 128.24 1092.88 128.24Z" fill="white"/>
<path d="M1068.61 139.452H1031.11C1030.3 139.452 1029.64 138.814 1029.64 138.027V136.611C1029.64 135.824 1030.3 135.186 1031.11 135.186H1068.61C1069.42 135.186 1070.08 135.824 1070.08 136.611V138.027C1070.08 138.814 1069.42 139.452 1068.61 139.452Z" fill="white"/>
<path d="M1057.25 156.634H1030.88C1030.2 156.634 1029.64 156.094 1029.64 155.43V153.571C1029.64 152.907 1030.2 152.367 1030.88 152.367H1057.25C1057.94 152.367 1058.5 152.907 1058.5 153.571V155.43C1058.5 156.094 1057.94 156.634 1057.25 156.634Z" fill="white"/>
<path d="M1076.97 147.501H1031.26C1030.36 147.501 1029.64 146.798 1029.64 145.934V144.805C1029.64 143.938 1030.37 143.238 1031.26 143.238H1076.97C1077.87 143.238 1078.59 143.941 1078.59 144.805V145.934C1078.59 146.801 1077.87 147.501 1076.97 147.501Z" fill="white"/>
<path d="M1100.76 167.994L1102.77 174.832C1102.24 174.871 1101.71 174.885 1101.18 174.875C1082.15 175.367 1075.49 149.778 1084.78 150.086C1086.73 150.281 1088.14 151.964 1087.94 153.847C1087.19 160.899 1092.5 167.226 1099.78 167.951C1100.11 167.973 1100.44 167.99 1100.76 167.994Z" fill="#C4204A"/>
<path d="M1121.37 157.179C1121.27 158.378 1121.04 159.551 1120.7 160.685L1113.56 159.449C1115.95 152.52 1112.59 143.694 1102.49 142.374C1099.87 142.112 1097.25 142.606 1094.93 143.797C1090.76 145.82 1087.55 139.962 1091.61 137.745C1105.39 130.23 1123.42 141.927 1121.37 157.179Z" fill="#F5A3B7"/>
<path d="M1120.7 160.685C1118.41 168.339 1111.01 174.274 1102.77 174.832L1100.76 167.994C1107.54 168.1 1111.91 164.226 1113.56 159.45L1120.7 160.685Z" fill="#E62552"/>
<path d="M1107.56 155.162C1107.56 158.595 1104.68 161.381 1101.14 161.381C1097.59 161.381 1094.72 158.598 1094.72 155.162C1094.72 151.729 1097.59 148.943 1101.14 148.943C1104.68 148.946 1107.56 151.729 1107.56 155.162Z" fill="#C4204A"/>
</svg>
