<svg width="512" height="448" viewBox="0 0 512 448" fill="none" xmlns="http://www.w3.org/2000/svg">
<path d="M464 448H48C21.49 448 0 426.51 0 400V48C0 21.49 21.49 0 48 0H464C490.51 0 512 21.49 512 48V400C512 426.51 490.51 448 464 448ZM128 88C105.909 88 88 105.909 88 128C88 150.091 105.909 168 128 168C150.091 168 168 150.091 168 128C168 105.909 150.091 88 128 88ZM128 184C105.909 184 88 201.909 88 224C88 246.091 105.909 264 128 264C150.091 264 168 246.091 168 224C168 201.909 150.091 184 128 184ZM128 280C105.909 280 88 297.909 88 320C88 342.091 105.909 360 128 360C150.091 360 168 342.091 168 320C168 297.909 150.091 280 128 280ZM416 144V112C416 105.373 410.627 100 404 100H204C197.373 100 192 105.373 192 112V144C192 150.627 197.373 156 204 156H404C410.627 156 416 150.627 416 144ZM416 240V208C416 201.373 410.627 196 404 196H204C197.373 196 192 201.373 192 208V240C192 246.627 197.373 252 204 252H404C410.627 252 416 246.627 416 240ZM416 336V304C416 297.373 410.627 292 404 292H204C197.373 292 192 297.373 192 304V336C192 342.627 197.373 348 204 348H404C410.627 348 416 342.627 416 336Z" fill="white"/>
</svg>
